<svg width="60" height="17" viewBox="0 0 60 17" fill="none" xmlns="http://www.w3.org/2000/svg">
<path d="M46.4775 3.10938V0.445312H59.2178V3.10938H54.4482V16H51.2471V3.10938H46.4775Z" fill="#F42A67"/>
<path d="M40.7852 4.89258C40.6562 3.66797 39.668 2.9375 38.0996 2.9375C36.4668 2.9375 35.5645 3.68945 35.543 4.7207C35.5215 5.83789 36.7031 6.35352 38.0352 6.6543L39.4316 6.99805C42.0957 7.59961 44.0938 8.95312 44.0938 11.5527C44.0938 14.4102 41.8594 16.2148 38.0781 16.2148C34.3184 16.2148 31.9121 14.4746 31.8262 11.1445H34.9629C35.0703 12.7129 36.3164 13.5078 38.0352 13.5078C39.7324 13.5078 40.8281 12.7129 40.8281 11.5527C40.8281 10.5 39.8613 10.0059 38.1641 9.57617L36.4668 9.16797C33.8457 8.52344 32.2344 7.21289 32.2344 4.93555C32.2344 2.09961 34.7266 0.230469 38.1211 0.230469C41.5586 0.230469 43.8359 2.14258 43.8789 4.89258H40.7852Z" fill="#F42A67"/>
<path d="M29.1416 8.22266C29.1416 13.293 25.9834 16.2148 21.8799 16.2148C17.7334 16.2148 14.5967 13.2715 14.5967 8.22266C14.5967 3.15234 17.7334 0.230469 21.8799 0.230469C25.9834 0.230469 29.1416 3.15234 29.1416 8.22266ZM25.8545 8.22266C25.8545 4.89258 24.2861 3.08789 21.8799 3.08789C19.4736 3.08789 17.8838 4.89258 17.8838 8.22266C17.8838 11.5527 19.4736 13.3574 21.8799 13.3574C24.2861 13.3574 25.8545 11.5527 25.8545 8.22266Z" fill="#F42A67"/>
<path d="M0.310547 16V0.445312H6.41211C9.95703 0.445312 11.9766 2.61523 11.9766 5.6875C11.9766 8.80273 9.91406 10.9297 6.32617 10.9297H3.5332V16H0.310547ZM3.5332 8.33008H5.81055C7.72266 8.33008 8.64648 7.25586 8.64648 5.6875C8.64648 4.14062 7.72266 3.08789 5.81055 3.08789H3.5332V8.33008Z" fill="#F42A67"/>
</svg>
